<svg id="wave-svg" xmlns="http://www.w3.org/2000/svg" viewBox="0 0 1440 320">
    <path fill="#07a0c3" fill-opacity="1"
        d="M0,288L24,282.7C48,277,96,267,144,266.7C192,267,240,277,288,272C336,267,384,245,432,218.7C480,192,528,160,576,165.3C624,171,672,213,720,208C768,203,816,149,864,128C912,107,960,117,1008,122.7C1056,128,1104,128,1152,149.3C1200,171,1248,213,1296,229.3C1344,245,1392,235,1416,229.3L1440,224L1440,0L1416,0C1392,0,1344,0,1296,0C1248,0,1200,0,1152,0C1104,0,1056,0,1008,0C960,0,912,0,864,0C816,0,768,0,720,0C672,0,624,0,576,0C528,0,480,0,432,0C384,0,336,0,288,0C240,0,192,0,144,0C96,0,48,0,24,0L0,0Z">
    </path>
</svg>